<svg width="30" height="30" viewBox="0 0 30 30" fill="none" xmlns="http://www.w3.org/2000/svg">
<g clip-path="url(#clip0_4793_8885)">
<path d="M45 45H30C38.2843 45 45 38.2843 45 30C45 21.7157 38.2843 15 30 15C21.7157 15 15 21.7157 15 30C15 38.2843 21.7157 45 30 45H0C8.28427 45 15 38.2843 15 30C15 21.7157 8.28427 15 0 15C-8.28427 15 -15 21.7157 -15 30C-15 38.2843 -8.28427 45 0 45H-15V-15H45V45ZM0 -15C-8.28427 -15 -15 -8.28427 -15 0C-15 8.28427 -8.28427 15 0 15C8.28427 15 15 8.28427 15 0C15 -8.28427 8.28427 -15 0 -15ZM30 -15C21.7157 -15 15 -8.28427 15 0C15 8.28427 21.7157 15 30 15C38.2843 15 45 8.28427 45 0C45 -8.28427 38.2843 -15 30 -15Z" fill="#666666"/>
</g>
<defs>
<clipPath id="clip0_4793_8885">
<rect width="30" height="30" fill="white"/>
</clipPath>
</defs>
</svg>
