<svg width="18" height="18" viewBox="0 0 18 18" fill="none" xmlns="http://www.w3.org/2000/svg">
<g clip-path="url(#clip0_4793_8911)">
<mask id="mask0_4793_8911" style="mask-type:luminance" maskUnits="userSpaceOnUse" x="0" y="0" width="18" height="18">
<path d="M18 0H0V18H18V0Z" fill="white"/>
</mask>
<g mask="url(#mask0_4793_8911)">
<path d="M27 27H18C22.9706 27 27 22.9706 27 18C27 13.0294 22.9706 9 18 9C13.0294 9 9 13.0294 9 18C9 22.9706 13.0294 27 18 27H3.57628e-07C4.97056 27 9 22.9706 9 18C9 13.0294 4.97056 9 3.57628e-07 9C-4.97056 9 -9 13.0294 -9 18C-9 22.9706 -4.97056 27 3.57628e-07 27H-9V-9H27V27ZM3.57628e-07 -9C-4.97056 -9 -9 -4.97056 -9 3.57628e-07C-9 4.97056 -4.97056 9 3.57628e-07 9C4.97056 9 9 4.97056 9 3.57628e-07C9 -4.97056 4.97056 -9 3.57628e-07 -9ZM18 -9C13.0294 -9 9 -4.97056 9 3.57628e-07C9 4.97056 13.0294 9 18 9C22.9706 9 27 4.97056 27 3.57628e-07C27 -4.97056 22.9706 -9 18 -9Z" fill="#333333"/>
</g>
</g>
<defs>
<clipPath id="clip0_4793_8911">
<rect width="18" height="18" fill="white"/>
</clipPath>
</defs>
</svg>
