<svg width="9" height="9" viewBox="0 0 9 9" fill="none" xmlns="http://www.w3.org/2000/svg">
<g clip-path="url(#clip0_4793_8918)">
<path d="M12.6008 12.5988H8.40078C10.7204 12.5988 12.6008 10.7184 12.6008 8.39883C12.6008 6.07923 10.7204 4.19883 8.40078 4.19883C6.08119 4.19883 4.20078 6.07923 4.20078 8.39883C4.20078 10.7184 6.08119 12.5988 8.40078 12.5988H0.000781268C2.32038 12.5988 4.20078 10.7184 4.20078 8.39883C4.20078 6.07923 2.32038 4.19883 0.000781268 4.19883C-2.31881 4.19883 -4.19922 6.07923 -4.19922 8.39883C-4.19922 10.7184 -2.31881 12.5988 0.000781268 12.5988H-4.19922V-4.20117H12.6008V12.5988ZM0.000781268 -4.20117C-2.31881 -4.20117 -4.19922 -2.32077 -4.19922 -0.00117186C-4.19922 2.31842 -2.31881 4.19883 0.000781268 4.19883C2.32038 4.19883 4.20078 2.31842 4.20078 -0.00117186C4.20078 -2.32077 2.32038 -4.20117 0.000781268 -4.20117ZM8.40078 -4.20117C6.08119 -4.20117 4.20078 -2.32077 4.20078 -0.00117186C4.20078 2.31842 6.08119 4.19883 8.40078 4.19883C10.7204 4.19883 12.6008 2.31842 12.6008 -0.00117186C12.6008 -2.32077 10.7204 -4.20117 8.40078 -4.20117Z" fill="#333333"/>
</g>
<defs>
<clipPath id="clip0_4793_8918">
<rect width="8.4" height="8.4" fill="white"/>
</clipPath>
</defs>
</svg>
