<svg width="24" height="24" viewBox="0 0 24 24" fill="none" xmlns="http://www.w3.org/2000/svg">
<g clip-path="url(#clip0_102_9713)">
<path d="M2.83729 5.26614C2.61265 5.5303 2.38735 5.79381 2.16798 6.05138C1.73715 5.6166 1.36166 5.23847 1 4.87418C1.917 3.95586 2.85244 3.01976 3.77602 2.09552C4.70026 3.02174 5.63505 3.95784 6.55072 4.8755C6.19302 5.2332 5.81489 5.61067 5.40382 6.02174C5.16601 5.75626 4.91041 5.47102 4.59025 5.11463V8.90448C6.31555 7.17655 8.08234 5.40843 9.8386 3.64954C9.37549 3.64954 8.85112 3.61726 8.33333 3.65942C7.88472 3.69565 7.57115 3.54809 7.27866 3.21739C6.92358 2.81621 6.51976 2.45784 6.08235 2.02767C6.24769 2.01515 6.33794 2.00264 6.42885 2.00264C10.8215 2.00198 15.2141 2 19.6067 2.00264C21.0086 2.0033 22.0079 2.98024 22.0099 4.37352C22.0171 8.7892 22.0125 13.2042 22.0125 17.6199C22.0125 17.6812 22.0059 17.7431 21.9209 17.863C21.5231 17.4466 21.143 17.0112 20.72 16.6219C20.4453 16.3689 20.3347 16.1054 20.357 15.7339C20.3887 15.2141 20.365 14.691 20.365 14.1746C18.6008 15.9407 16.8544 17.6884 15.112 19.4328H18.9091C18.554 19.143 18.2615 18.9045 17.9743 18.67C18.4453 18.2167 18.8287 17.8478 19.2016 17.4881C20.0837 18.3801 21.0152 19.3215 21.9401 20.2563C21.0441 21.1456 20.1047 22.0784 19.1752 23.0007C18.8261 22.6449 18.4545 22.2668 18.0586 21.8636C18.2813 21.6673 18.5349 21.4433 18.7885 21.2194C18.7727 21.1805 18.7569 21.1416 18.7404 21.1034H18.3775C14.0507 21.1034 9.72398 21.1047 5.39723 21.1028C4.21278 21.1028 3.35903 20.5283 3.03294 19.4835C2.94335 19.1963 2.91765 18.8801 2.917 18.5764C2.90975 14.2708 2.91238 9.96509 2.91238 5.65942C2.91238 5.54348 2.91238 5.42688 2.91238 5.31094C2.88669 5.29579 2.861 5.28129 2.83531 5.26614H2.83729ZM4.56258 18.1831C9.40975 13.3353 14.249 8.49473 19.0935 3.64954C18.4032 3.64954 17.6937 3.64361 16.9842 3.65679C16.8933 3.65876 16.7879 3.74177 16.7154 3.81423C12.7167 7.80896 8.72003 11.8063 4.72596 15.8063C4.65415 15.8788 4.57115 15.9842 4.56917 16.0751C4.55599 16.7839 4.56192 17.4928 4.56192 18.1825L4.56258 18.1831ZM20.365 4.95784C15.5296 9.79183 10.695 14.6258 5.86693 19.4526C6.52569 19.4526 7.22464 19.4585 7.92358 19.4453C8.01449 19.4433 8.11858 19.3571 8.19104 19.2839C12.1963 15.2826 16.1996 11.2787 20.1996 7.27273C20.2721 7.20027 20.3557 7.09486 20.357 7.00395C20.3702 6.30567 20.3643 5.60672 20.3643 4.95784H20.365ZM20.365 9.58762C17.0758 12.8742 13.7833 16.164 10.4914 19.4526C11.1588 19.4526 11.857 19.4585 12.556 19.4453C12.6462 19.4433 12.749 19.3531 12.8221 19.28C15.2846 16.8221 17.7444 14.3617 20.2016 11.8986C20.2734 11.8261 20.3557 11.72 20.3577 11.6285C20.3709 10.9295 20.365 10.2306 20.365 9.58696V9.58762ZM4.56258 13.5231C7.861 10.226 11.1462 6.94137 14.4387 3.64954C13.7793 3.64954 13.1028 3.64361 12.4262 3.65613C12.334 3.6581 12.2266 3.73518 12.1548 3.80633C9.67589 6.27997 7.20026 8.75626 4.72727 11.2352C4.65547 11.3076 4.5718 11.4124 4.56983 11.504C4.55665 12.1818 4.56258 12.8597 4.56258 13.5231Z" fill="#999999"/>
</g>
<defs>
<clipPath id="clip0_102_9713">
<rect width="21.0145" height="21" fill="white" transform="translate(1 2)"/>
</clipPath>
</defs>
</svg>
